<?xml version="1.0" standalone="no"?>
<!DOCTYPE svg PUBLIC "-//W3C//DTD SVG 20010904//EN"
 "http://www.w3.org/TR/2001/REC-SVG-20010904/DTD/svg10.dtd">
<svg version="1.0" xmlns="http://www.w3.org/2000/svg"
 width="300.000000pt" height="300.000000pt" viewBox="0 0 300.000000 300.000000"
 preserveAspectRatio="xMidYMid meet">

<g transform="translate(0.000000,300.000000) scale(0.100000,-0.100000)"
fill="#000000" stroke="none">
<path d="M90 2100 l0 -600 43 0 c31 0 49 6 62 20 10 11 27 20 37 20 10 0 30 7
43 16 23 15 25 15 45 -18 11 -18 20 -39 20 -45 0 -20 15 -16 48 12 17 14 32
25 35 25 4 0 14 -17 23 -37 10 -21 19 -40 20 -42 2 -2 16 6 32 18 28 19 30 19
36 3 10 -28 33 -63 42 -65 5 -1 7 -10 6 -20 -3 -15 1 -17 16 -13 16 5 24 -1
39 -33 16 -37 43 -56 43 -31 0 19 21 10 32 -15 15 -32 31 -32 56 3 l21 27 10
-27 c11 -30 35 -37 45 -13 7 19 26 19 26 0 0 -21 31 -54 45 -49 6 3 18 -9 26
-26 l14 -31 30 23 c30 23 82 37 70 18 -3 -5 0 -10 8 -10 13 0 41 -43 42 -65 0
-18 18 -23 32 -9 7 7 19 26 26 41 14 33 87 153 102 169 5 6 19 23 30 38 52 73
78 101 90 98 7 -1 24 14 39 33 29 37 64 49 51 18 -16 -41 -26 -84 -20 -94 4
-5 15 -7 26 -4 18 6 34 -18 53 -77 3 -10 14 -18 25 -18 14 0 27 -13 41 -40 13
-25 25 -37 34 -34 8 3 14 -1 13 -8 -1 -43 4 -57 26 -60 13 -2 28 -15 37 -35 8
-18 22 -33 32 -33 18 0 85 71 108 116 17 33 42 64 51 64 3 0 14 -20 24 -44 13
-31 23 -42 33 -38 16 6 56 42 46 42 -3 0 9 15 25 33 17 17 31 37 31 43 0 6 6
17 13 23 11 8 16 5 25 -15 7 -14 12 -32 12 -40 0 -32 53 0 94 57 10 14 17 18
16 9 -3 -22 11 -60 22 -60 5 0 0 -13 -11 -29 -12 -16 -21 -33 -21 -38 0 -5
-56 -63 -125 -129 -69 -65 -125 -124 -125 -131 0 -7 -8 -17 -17 -23 -14 -8 -8
-10 27 -6 40 5 42 4 15 -4 -16 -6 -77 -13 -135 -17 -98 -6 -107 -8 -151 -40
-25 -18 -49 -33 -52 -33 -3 0 -35 -18 -72 -40 -48 -30 -72 -39 -88 -34 -54 16
-142 57 -202 94 l-64 39 -112 -10 c-62 -6 -174 -11 -250 -12 l-137 -2 -32 30
c-18 17 -41 47 -51 67 -11 21 -26 38 -34 38 -21 0 32 -84 89 -139 l45 -44 239
7 c263 7 242 11 372 -59 25 -13 51 -24 58 -24 7 -1 37 -13 66 -27 l53 -26 64
45 c121 84 195 117 262 117 l60 0 -26 -20 -26 -21 21 -21 20 -20 25 28 c20 23
26 26 33 14 6 -8 10 -19 10 -25 0 -5 -4 -3 -10 5 -7 12 -13 9 -32 -15 -40 -52
-137 -133 -114 -96 22 34 -55 -20 -144 -102 -90 -84 -186 -165 -225 -190 -59
-39 -75 -53 -75 -67 0 -8 8 -10 24 -6 28 7 36 -7 36 -60 0 -21 -4 -33 -10 -29
-6 4 -8 11 -5 16 5 8 -16 14 -38 10 -4 -1 -10 6 -13 14 -4 9 -19 15 -40 15
-34 0 -34 -1 -34 -45 l0 -45 40 0 c36 0 40 3 40 25 0 14 5 25 10 25 6 0 10
-11 10 -25 0 -25 0 -25 94 -25 92 0 93 0 89 23 -3 14 3 29 16 41 21 19 21 19
21 -22 l0 -42 104 0 105 0 4 33 4 32 1 -32 2 -33 135 0 135 0 0 114 c0 89 3
116 15 126 13 11 15 -3 15 -114 l0 -126 405 0 405 0 0 390 0 390 -189 0 c-188
0 -189 0 -193 22 l-4 23 193 -3 193 -3 0 26 0 25 -170 0 c-158 0 -191 6 -158
26 7 4 8 3 4 -4 -5 -9 36 -12 158 -12 141 0 166 2 166 15 0 13 -21 15 -130 15
l-130 0 0 30 0 30 130 0 130 0 0 40 0 40 -120 0 c-73 0 -120 4 -120 10 0 6 47
10 120 10 l120 0 0 35 0 35 -135 0 c-88 0 -135 -4 -135 -11 0 -5 -4 -8 -9 -5
-5 3 -11 -1 -15 -9 -5 -15 -46 -22 -46 -7 1 4 16 25 35 47 32 38 35 39 48 21
7 -10 22 -16 33 -14 15 3 19 12 19 41 l0 37 103 0 c131 0 135 18 5 23 l-98 3
98 2 c77 2 97 5 97 17 0 11 -20 15 -92 18 l-93 3 93 2 c51 1 92 6 92 12 0 5
-46 11 -102 13 l-103 3 103 2 102 2 0 40 0 40 -105 0 c-67 0 -105 -4 -105 -11
0 -5 -5 -7 -11 -3 -24 15 20 24 119 24 137 0 133 18 -5 23 l-108 3 108 2 c98
2 107 4 107 21 0 18 -10 20 -127 23 -77 2 -134 -1 -142 -7 -12 -8 -12 -7 -1
11 7 12 18 21 24 21 6 0 64 1 129 1 l117 2 0 470 0 470 -250 0 -250 0 -3 -212
-2 -213 -3 213 -2 212 -40 0 -40 0 -3 -187 -2 -188 -3 188 -2 187 -170 0 -169
0 -4 -82 -3 -83 -2 83 -2 82 -30 0 -30 0 0 -78 c0 -71 -2 -78 -20 -78 -18 0
-20 7 -20 78 0 47 -4 78 -10 78 -7 0 -10 -32 -8 -87 3 -82 4 -88 23 -85 11 1
45 2 75 1 30 -1 63 -1 73 -1 10 1 17 -7 17 -19 0 -13 4 -18 12 -13 7 5 9 2 5
-9 -3 -9 -1 -17 4 -19 6 -2 11 -10 13 -18 7 -33 19 -50 37 -50 19 0 26 -15 11
-22 -4 -2 -18 -15 -31 -30 -23 -26 -23 -27 -5 -57 12 -21 24 -29 35 -26 11 4
24 -4 37 -19 10 -14 22 -23 25 -20 3 4 15 -8 26 -26 l19 -33 -59 -55 c-58 -53
-74 -91 -36 -84 22 4 21 0 -3 -28 -17 -19 -28 -22 -88 -21 l-69 1 -46 -46
c-25 -25 -51 -43 -57 -39 -6 3 -8 10 -6 14 3 4 -15 8 -40 9 -38 0 -52 -5 -82
-32 -47 -42 -79 -51 -92 -25 -14 25 -51 24 -86 -3 -16 -13 -38 -24 -49 -25
-11 -1 -54 -5 -96 -9 -61 -5 -82 -11 -103 -30 -32 -30 -44 -30 -58 1 -9 21
-18 25 -54 25 -36 0 -43 3 -48 25 -6 22 -12 25 -51 25 -32 0 -45 4 -45 14 0
19 -15 23 -78 20 -42 -1 -55 2 -63 17 -11 21 -49 25 -81 8 -18 -10 -24 -8 -35
7 -14 20 -61 21 -95 3 -14 -7 -21 -3 -33 20 -13 27 -19 30 -51 25 -20 -2 -40
-7 -45 -10 -5 -3 -9 2 -9 12 0 14 -7 15 -39 10 -34 -5 -39 -3 -45 17 -3 12 -6
172 -6 355 l0 332 -125 0 -125 0 -3 -372 -2 -373 -3 373 -2 372 -75 0 -75 0 0
-600z m2135 380 c-3 -5 -35 -10 -71 -10 -36 0 -64 4 -64 10 0 6 30 10 71 10
44 0 68 -4 64 -10z m162 -192 c-3 -8 -6 -5 -6 6 -1 11 2 17 5 13 3 -3 4 -12 1
-19z m166 -43 c-3 -9 -8 -14 -10 -11 -3 3 -2 9 2 15 9 16 15 13 8 -4z m-26
-57 c-3 -7 -5 -2 -5 12 0 14 2 19 5 13 2 -7 2 -19 0 -25z m-60 0 c-3 -8 -6 -5
-6 6 -1 11 2 17 5 13 3 -3 4 -12 1 -19z m-207 -52 c0 -2 -7 -7 -16 -10 -8 -3
-12 -2 -9 4 6 10 25 14 25 6z m248 -26 c-15 -24 -19 -21 -11 8 3 12 9 19 14
16 5 -3 3 -14 -3 -24z m-303 -20 c-3 -5 -11 -10 -16 -10 -6 0 -7 5 -4 10 3 6
11 10 16 10 6 0 7 -4 4 -10z m160 -45 c-27 -25 -54 -45 -58 -45 -5 0 15 20 45
44 69 58 78 58 13 1z m-135 -161 c0 -16 16 -19 25 -5 3 6 -2 14 -11 19 -13 7
-14 13 -6 28 10 18 11 17 20 -6 12 -33 9 -68 -8 -103 -10 -20 -16 -24 -22 -15
-6 9 -7 6 -4 -7 4 -12 -9 -52 -33 -100 -21 -44 -41 -90 -45 -103 -4 -12 -11
-20 -16 -17 -11 7 -70 -6 -70 -15 0 -4 16 -7 35 -5 37 2 40 -1 25 -25 -5 -8
-10 -10 -10 -3 0 6 -9 9 -20 6 -11 -3 -20 -10 -20 -15 0 -5 -4 -6 -10 -3 -13
8 -50 -12 -50 -27 0 -9 3 -9 12 0 7 7 19 12 28 12 13 0 13 -2 0 -10 -8 -5 -11
-12 -7 -16 3 -4 15 -1 24 6 10 8 6 1 -9 -14 -26 -25 -32 -38 -29 -61 1 -5 -5
-1 -14 9 -13 17 -15 17 -21 3 -3 -9 -10 -14 -15 -11 -5 3 -6 -3 -2 -13 4 -13
3 -15 -6 -7 -14 13 -3 47 12 37 6 -4 8 0 4 11 -4 9 -3 15 2 12 5 -3 14 1 21 9
7 8 17 12 24 8 6 -3 8 -2 3 2 -12 14 -49 17 -41 3 5 -7 3 -8 -5 -4 -9 6 -8 13
5 27 9 10 14 19 11 19 -3 0 -1 14 4 30 6 17 15 30 20 30 5 0 9 11 9 25 0 18 4
23 15 19 8 -4 15 -1 15 5 0 6 -6 11 -12 11 -9 0 -8 4 2 10 22 14 33 12 27 -4
-9 -22 19 -27 37 -7 22 25 20 41 -6 42 -13 0 -17 3 -10 6 6 2 12 13 12 24 0
13 5 17 17 12 11 -4 14 -3 9 5 -4 7 -2 12 4 12 6 0 9 4 5 9 -3 5 -1 12 4 15 9
6 -18 96 -31 106 -4 3 -3 12 2 20 8 12 10 11 10 -5 1 -18 3 -16 22 8 16 22 23
26 30 15 5 -8 6 -2 3 17 l-6 30 20 -24 c12 -13 21 -29 21 -37z m-1399 -43
c-26 -58 -62 -112 -71 -106 -5 3 -11 1 -15 -5 -3 -5 -1 -10 4 -10 6 0 2 -9 -8
-19 -11 -11 -18 -28 -15 -38 2 -10 -18 -58 -46 -108 -32 -58 -50 -82 -50 -67
0 12 -4 22 -10 22 -5 0 -7 7 -4 15 4 8 13 15 21 15 8 0 12 4 8 9 -3 5 0 15 7
23 7 7 14 20 16 28 11 49 80 163 93 154 5 -3 9 -1 9 5 0 5 7 17 17 26 14 14
14 18 2 26 -10 6 -10 9 -1 9 6 0 11 5 10 12 -2 7 3 12 11 13 8 0 16 6 19 14 3
9 0 11 -8 6 -9 -6 -9 -3 0 15 20 38 30 3 11 -39z m94 8 c6 -6 6 -12 0 -17 -6
-5 -21 2 -35 16 l-25 24 25 -7 c14 -4 29 -11 35 -16z m50 2 c3 -5 -2 -16 -10
-24 -9 -9 -11 -17 -5 -20 6 -3 5 -4 -1 -3 -15 3 -21 36 -8 36 6 0 7 5 4 10 -3
6 -2 10 4 10 5 0 12 -4 16 -9z m-101 -18 c-5 -5 -12 -12 -16 -18 -4 -6 -8 -2
-8 8 0 9 7 17 17 17 9 0 12 -3 7 -7z m1251 -3 c-3 -5 -1 -10 4 -10 15 0 14
-17 -2 -23 -9 -3 -13 2 -11 16 3 27 3 27 10 27 3 0 2 -4 -1 -10z m-1215 -32
c0 -4 -4 -8 -10 -8 -5 0 -10 -7 -10 -15 0 -8 -5 -15 -11 -15 -5 0 -8 -4 -4
-10 3 -5 -2 -18 -12 -30 -25 -28 -25 -59 -2 -57 12 1 15 5 9 11 -17 17 -11 29
7 15 11 -10 14 -10 9 -1 -4 6 -2 12 3 12 6 0 11 5 11 11 0 5 -5 7 -11 4 -6 -4
0 8 12 27 49 76 43 28 -13 -89 -32 -67 -58 -127 -58 -133 0 -5 -4 -10 -10 -10
-13 0 -12 10 5 40 9 18 10 29 3 37 -8 10 -6 13 5 13 9 0 21 9 27 21 13 23 12
26 -10 29 -33 5 -48 -1 -53 -20 -4 -18 -2 -20 16 -14 21 6 22 6 2 -9 -10 -8
-24 -13 -31 -10 -6 2 -14 -5 -17 -16 -5 -22 3 -27 19 -11 6 6 15 6 24 0 12 -8
11 -10 -7 -10 -13 0 -24 -8 -28 -20 -4 -11 -11 -17 -17 -14 -6 4 -5 9 3 15 11
6 9 9 -5 15 -14 5 -15 9 -4 15 10 7 10 11 0 17 -17 12 -4 70 19 83 13 7 26 6
42 -2 20 -11 21 -11 8 4 -7 10 -20 17 -28 17 -8 0 -11 5 -8 10 5 8 11 7 21 -1
16 -14 43 8 36 30 -3 8 0 11 6 7 6 -3 13 -2 17 4 3 5 1 10 -6 10 -7 0 -5 8 6
20 10 11 15 20 11 20 -4 0 -5 4 -2 8 3 5 12 9 21 9 8 0 15 -4 15 -9z m-74 -33
c-9 -14 -22 -25 -29 -25 -8 1 -6 5 4 13 9 7 14 18 11 26 -3 8 0 11 7 7 6 -4
11 -2 11 5 0 7 3 9 6 6 4 -4 -1 -18 -10 -32z m1303 -18 c-2 -1 -13 -9 -24 -17
-19 -14 -19 -14 -6 3 7 9 18 17 24 17 6 0 8 -1 6 -3z m-1489 -31 c0 -2 -8 -10
-17 -17 -16 -13 -17 -12 -4 4 13 16 21 21 21 13z m2050 -11 c0 -8 -4 -15 -10
-15 -5 0 -7 7 -4 15 4 8 8 15 10 15 2 0 4 -7 4 -15z m-605 -5 c-3 -5 -13 -10
-21 -10 -8 0 -12 5 -9 10 3 6 13 10 21 10 8 0 12 -4 9 -10z m-1425 -24 c-7 -7
-13 -7 -20 0 -6 6 -3 10 10 10 13 0 16 -4 10 -10z m1405 -16 c-3 -5 -11 -10
-16 -10 -6 0 -7 5 -4 10 3 6 11 10 16 10 6 0 7 -4 4 -10z m-1785 -8 c0 -13
-36 -43 -42 -36 -12 11 5 44 23 44 11 0 19 -4 19 -8z m1834 -7 c-7 -16 -24
-21 -24 -6 0 8 7 13 27 20 1 1 0 -6 -3 -14z m-1479 -22 c-8 -8 -15 -20 -15
-26 0 -7 -4 -6 -10 3 -13 20 -13 33 0 25 6 -3 10 1 10 9 0 9 6 13 15 10 13 -5
13 -8 0 -21z m-508 -5 c-3 -8 -6 -5 -6 6 -1 11 2 17 5 13 3 -3 4 -12 1 -19z
m2453 -1 c0 -2 -10 -12 -22 -23 l-23 -19 19 23 c18 21 26 27 26 19z m-1976
-62 c-6 -16 -34 -28 -34 -15 0 5 5 12 10 15 6 4 8 11 5 16 -3 5 1 6 9 3 8 -3
12 -12 10 -19z m120 -20 c-7 -16 -24 -21 -24 -6 0 8 7 13 27 20 1 1 0 -6 -3
-14z m-136 -50 c-3 -3 -9 2 -12 12 -6 14 -5 15 5 6 7 -7 10 -15 7 -18z m122 6
c0 -5 -6 -14 -14 -20 -12 -10 -13 -8 -9 8 5 21 23 30 23 12z m85 -21 c-4 -11
-14 -20 -23 -19 -31 3 -43 -1 -37 -11 3 -6 -1 -7 -9 -4 -9 3 -16 12 -16 20 0
8 6 11 15 8 8 -4 17 1 21 10 3 9 10 13 15 10 5 -3 6 -10 3 -16 -4 -6 -1 -9 7
-6 8 3 15 10 15 16 3 23 4 25 10 19 3 -3 3 -15 -1 -27z m1485 6 c0 -2 -8 -10
-17 -17 -16 -13 -17 -12 -4 4 13 16 21 21 21 13z m-207 -26 c-3 -12 -8 -19
-11 -16 -5 6 5 36 12 36 2 0 2 -9 -1 -20z m-1375 -48 c-4 -2 -8 -9 -8 -17 0
-7 -7 -18 -15 -25 -13 -11 -14 -10 -9 6 4 10 11 25 17 32 6 8 6 17 -2 25 -6 8
-8 17 -4 20 3 4 11 -3 18 -16 6 -12 7 -23 3 -25z m1345 23 c-3 -9 -8 -14 -10
-11 -3 3 -2 9 2 15 9 16 15 13 8 -4z m-43 -34 c0 -6 -4 -13 -10 -16 -5 -3 -10
1 -10 9 0 9 5 16 10 16 6 0 10 -4 10 -9z m28 -16 c-6 -14 -13 -23 -15 -21 -5
5 15 46 22 46 3 0 -1 -11 -7 -25z m-1288 0 c7 -9 11 -17 8 -20 -2 -2 -12 4
-21 15 -9 11 -13 20 -8 20 5 0 14 -7 21 -15z m1212 -35 c-6 -40 -18 -39 -16 3
2 40 2 39 12 33 5 -3 7 -19 4 -36z m24 -45 c-8 -19 -17 -35 -20 -35 -4 0 2 35
11 60 4 8 5 22 4 30 -1 11 1 11 9 -2 8 -13 7 -27 -4 -53z m383 -150 c-12 -19
-23 -35 -25 -35 -6 0 14 40 29 58 18 23 16 12 -4 -23z m-199 0 c-7 -9 -15 -13
-19 -10 -3 3 1 10 9 15 21 14 24 12 10 -5z m268 -44 c-12 -22 -24 -38 -26 -36
-5 4 37 75 44 75 3 0 -6 -18 -18 -39z m-35 -66 c-3 -9 -8 -14 -10 -11 -3 3 -2
9 2 15 9 16 15 13 8 -4z m-10 -40 c-3 -9 -8 -14 -10 -11 -3 3 -2 9 2 15 9 16
15 13 8 -4z m-295 -22 c-10 -2 -26 -2 -35 0 -10 3 -2 5 17 5 19 0 27 -2 18 -5z
m-28 -63 c-8 -5 -26 -9 -40 -9 -23 1 -23 2 5 9 43 11 52 11 35 0z m-90 -40 c0
-5 -2 -10 -4 -10 -3 0 -8 5 -11 10 -3 6 -1 10 4 10 6 0 11 -4 11 -10z m-70
-15 c-7 -8 -18 -15 -24 -15 -6 0 -2 7 8 15 25 19 32 19 16 0z m570 -15 c0 -5
-5 -10 -11 -10 -5 0 -7 5 -4 10 3 6 8 10 11 10 2 0 4 -4 4 -10z m-230 -64 c0
-3 -4 -8 -10 -11 -5 -3 -10 -1 -10 4 0 6 5 11 10 11 6 0 10 -2 10 -4z m-450
-90 c0 -3 -4 -8 -10 -11 -5 -3 -10 -1 -10 4 0 6 5 11 10 11 6 0 10 -2 10 -4z
m527 -158 c-2 -29 -3 -8 -3 47 0 55 1 79 3 53 2 -26 2 -71 0 -100z m-87 -9 c0
-55 -27 -53 -32 2 -4 45 -2 50 18 42 9 -3 14 -20 14 -44z m-70 -19 c0 -11 -4
-20 -10 -20 -5 0 -10 9 -10 20 0 11 5 20 10 20 6 0 10 -9 10 -20z m-212 -122
c-7 -20 -58 -23 -58 -4 0 11 10 16 31 16 20 0 29 -4 27 -12z m-268 -18 c0 -5
-5 -10 -11 -10 -5 0 -7 5 -4 10 3 6 8 10 11 10 2 0 4 -4 4 -10z m15 -51 c-8
-12 -45 2 -45 17 0 11 5 11 25 2 13 -6 22 -14 20 -19z m5 -23 c0 -3 -4 -8 -10
-11 -5 -3 -10 -1 -10 4 0 6 5 11 10 11 6 0 10 -2 10 -4z"/>
<path d="M2200 1863 c1 -17 29 -45 39 -38 17 10 13 23 -6 21 -10 0 -17 5 -15
12 1 6 -2 12 -8 12 -5 0 -10 -3 -10 -7z"/>
<path d="M2174 1843 c4 -12 2 -24 -4 -28 -13 -8 -13 -25 0 -25 6 0 10 6 10 14
0 8 6 16 12 18 9 3 7 10 -6 23 -18 19 -18 19 -12 -2z"/>
<path d="M2193 1753 c-3 -10 -8 -22 -10 -28 -3 -5 3 -1 11 9 16 20 21 36 11
36 -3 0 -8 -8 -12 -17z"/>
<path d="M2066 1601 c-3 -5 3 -11 14 -14 21 -5 32 1 24 14 -7 12 -31 11 -38 0z"/>
<path d="M2025 1530 c3 -5 8 -10 11 -10 2 0 4 5 4 10 0 6 -5 10 -11 10 -5 0
-7 -4 -4 -10z"/>
<path d="M904 2550 c0 -85 2 -120 3 -77 2 42 2 112 0 155 -1 42 -3 7 -3 -78z"/>
<path d="M1082 2668 c3 -33 4 -33 60 -36 83 -4 123 8 123 39 0 24 -2 24 -93
27 l-93 3 3 -33z"/>
<path d="M1280 2686 c0 -7 7 -19 15 -26 11 -9 15 -10 15 0 0 8 10 9 29 5 26
-6 29 -4 24 14 -4 17 -13 21 -44 21 -26 0 -39 -4 -39 -14z"/>
<path d="M1400 2680 c0 -14 7 -20 21 -20 16 0 20 -5 16 -20 -6 -24 10 -26 33
-5 11 10 15 25 12 40 -4 22 -10 25 -43 25 -32 0 -39 -3 -39 -20z"/>
<path d="M1562 2668 c4 -46 28 -49 28 -4 0 26 -4 36 -16 36 -11 0 -14 -8 -12
-32z"/>
<path d="M1683 2635 c0 -38 2 -53 4 -32 2 20 2 52 0 70 -2 17 -4 1 -4 -38z"/>
<path d="M1738 2625 c-2 -57 0 -74 9 -71 15 6 33 -24 33 -53 0 -30 17 -26 35
9 10 19 15 57 15 110 0 73 -2 80 -20 80 -18 0 -20 -7 -20 -69 0 -58 3 -70 18
-74 13 -4 11 -5 -5 -6 -22 -1 -23 3 -23 74 0 67 -2 75 -19 75 -17 0 -20 -9
-23 -75z"/>
<path d="M1100 2579 c0 -18 5 -20 47 -17 36 2 49 7 51 21 3 14 -4 17 -47 17
-45 0 -51 -3 -51 -21z"/>
<path d="M1648 2580 c-7 -24 -3 -38 8 -28 3 4 4 17 2 30 l-3 23 -7 -25z"/>
<path d="M1100 2494 c0 -49 2 -55 15 -44 17 14 20 50 5 50 -5 0 -10 5 -10 10
0 6 14 10 31 10 41 0 33 24 -9 28 l-32 3 0 -57z"/>
<path d="M1112 2059 c-22 -9 -21 -11 38 -66 69 -64 149 -123 166 -123 19 0 25
31 12 59 -6 14 -40 52 -76 84 -66 59 -90 67 -140 46z"/>
<path d="M1644 2035 c-27 -14 -57 -32 -67 -39 -18 -14 -18 -15 3 -36 l22 -22
60 28 c68 33 86 55 62 78 -20 21 -21 20 -80 -9z"/>
<path d="M247 1413 c-4 -3 -7 -17 -7 -30 0 -22 -3 -23 -75 -23 -60 0 -75 -3
-75 -15 0 -12 18 -15 100 -15 l100 0 0 25 c0 14 -4 25 -10 25 -5 0 -10 9 -10
20 0 20 -11 26 -23 13z"/>
<path d="M90 1225 c0 -13 13 -15 77 -13 50 2 78 7 81 16 3 9 -17 12 -77 12
-66 0 -81 -3 -81 -15z"/>
<path d="M215 1160 c-3 -5 -1 -10 4 -10 6 0 11 5 11 10 0 6 -2 10 -4 10 -3 0
-8 -4 -11 -10z"/>
<path d="M90 1130 c0 -6 26 -10 59 -10 33 0 63 5 66 10 4 6 -18 10 -59 10 -37
0 -66 -4 -66 -10z"/>
<path d="M1633 1125 c-15 -10 -21 -26 -21 -55 -1 -44 7 -49 30 -22 32 36 41
63 26 78 -12 12 -17 12 -35 -1z"/>
<path d="M90 1065 l0 -44 58 -4 57 -3 -57 -2 -58 -2 0 -185 0 -186 225 3 225
3 0 -67 0 -68 74 0 c56 0 75 4 80 15 4 12 -5 15 -50 15 -47 0 -55 3 -52 17 3
15 14 18 56 18 68 -1 68 15 0 17 l-53 1 45 7 45 7 -38 1 -39 2 4 51 c3 49 3
50 -14 28 -13 -16 -18 -39 -18 -90 0 -39 -4 -69 -10 -69 -6 0 -10 28 -10 65
l0 65 -70 0 -70 0 0 75 0 75 -77 0 c-60 0 -74 3 -65 12 14 14 16 116 2 152 -7
20 -17 26 -40 26 -27 0 -29 2 -24 30 4 16 3 41 0 55 -6 23 -11 25 -66 25 l-60
0 0 -45z"/>
<path d="M263 1083 c-7 -2 -13 -16 -13 -30 0 -19 4 -24 22 -21 12 2 24 9 26
17 3 10 0 12 -13 7 -14 -5 -16 -2 -12 14 3 11 4 20 4 19 -1 0 -8 -3 -14 -6z"/>
<path d="M1210 1071 c0 -11 58 -61 71 -61 5 0 -1 16 -13 35 -21 32 -58 48 -58
26z"/>
<path d="M325 952 c-6 -6 -7 -92 0 -92 13 0 55 24 59 35 5 13 -50 66 -59 57z"/>
<path d="M315 840 c-4 -6 15 -10 49 -10 31 0 56 5 56 10 0 6 -22 10 -49 10
-28 0 -53 -4 -56 -10z"/>
<path d="M455 749 c-6 -28 -1 -48 10 -37 3 2 8 19 11 36 8 42 -12 43 -21 1z"/>
<path d="M515 691 c-3 -5 -1 -12 5 -16 5 -3 10 1 10 9 0 18 -6 21 -15 7z"/>
<path d="M630 688 c0 -9 5 -20 10 -23 13 -8 13 5 0 25 -8 13 -10 13 -10 -2z"/>
<path d="M323 493 l-233 -3 0 -55 0 -55 298 0 297 0 0 60 0 60 -65 -2 c-36 -2
-170 -4 -297 -5z"/>
<path d="M732 439 c2 -27 8 -34 26 -35 19 -1 19 -1 2 3 -15 3 -19 10 -14 28 3
13 1 26 -6 30 -8 5 -10 -3 -8 -26z"/>
<path d="M1125 401 c-3 -5 -1 -12 5 -16 5 -3 10 1 10 9 0 18 -6 21 -15 7z"/>
<path d="M1290 393 c0 -42 13 -63 36 -63 29 0 32 16 4 25 -13 4 -20 15 -20 31
0 13 -4 24 -10 24 -5 0 -10 -8 -10 -17z"/>
<path d="M870 315 c0 -50 4 -85 10 -85 6 0 10 35 10 85 0 50 -4 85 -10 85 -6
0 -10 -35 -10 -85z"/>
<path d="M900 316 c0 -51 4 -86 10 -86 6 0 10 32 10 75 0 41 0 78 1 82 0 4 -4
9 -10 11 -7 2 -11 -25 -11 -82z"/>
<path d="M833 378 c-4 -7 -15 -13 -23 -13 -12 0 -16 -15 -18 -67 l-3 -68 31 0
30 0 0 80 c0 81 -2 90 -17 68z"/>
<path d="M1255 350 c-3 -11 -11 -20 -16 -20 -5 0 -9 -22 -9 -50 0 -43 3 -50
20 -50 18 0 20 7 20 70 0 72 -4 85 -15 50z"/>
<path d="M1100 295 c0 -37 4 -65 10 -65 6 0 10 22 10 49 0 27 3 56 6 65 4 11
1 16 -10 16 -13 0 -16 -12 -16 -65z"/>
<path d="M977 343 c-13 -12 -7 -23 13 -23 13 0 18 5 14 15 -7 16 -17 19 -27 8z"/>
<path d="M1040 276 c0 -25 5 -46 10 -46 6 0 10 18 10 39 0 22 -4 43 -10 46 -6
4 -10 -12 -10 -39z"/>
<path d="M963 270 c0 -25 2 -35 4 -22 2 12 2 32 0 45 -2 12 -4 2 -4 -23z"/>
<path d="M1010 270 c0 -22 5 -40 10 -40 6 0 10 18 10 40 0 22 -4 40 -10 40 -5
0 -10 -18 -10 -40z"/>
<path d="M1213 265 c0 -22 2 -30 4 -17 2 12 2 30 0 40 -3 9 -5 -1 -4 -23z"/>
</g>
</svg>
